<mxfile host="Electron" modified="2025-10-03T15:19:35.457Z" agent="Mozilla/5.0 (X11; Linux x86_64) AppleWebKit/537.36 (KHTML, like Gecko) draw.io/23.1.5 Chrome/120.0.6099.109 Electron/28.1.0 Safari/537.36" etag="EVAkMbbNCVDUyxnQ8Fnf" version="23.1.5" type="device">
  <diagram name="Страница — 1" id="QKaND1stN5zPCuOhzsyY">
    <mxGraphModel dx="1644" dy="1061" grid="1" gridSize="10" guides="1" tooltips="1" connect="1" arrows="1" fold="1" page="1" pageScale="1" pageWidth="827" pageHeight="1169" math="0" shadow="0">
      <root>
        <mxCell id="0" />
        <mxCell id="1" parent="0" />
        <mxCell id="nMiAAU5giXeKPv7Q_GYp-1" value="Sync symbol with&lt;br&gt;stdout, stderr output" style="whiteSpace=wrap;html=1;align=center;" parent="1" vertex="1">
          <mxGeometry x="80" y="50" width="160" height="60" as="geometry" />
        </mxCell>
        <mxCell id="nMiAAU5giXeKPv7Q_GYp-2" value="Async symbol (filter)" style="whiteSpace=wrap;html=1;align=center;" parent="1" vertex="1">
          <mxGeometry x="320" y="50" width="160" height="60" as="geometry" />
        </mxCell>
        <mxCell id="nMiAAU5giXeKPv7Q_GYp-3" value="Async symbol (filter)" style="whiteSpace=wrap;html=1;align=center;" parent="1" vertex="1">
          <mxGeometry x="560" y="50" width="160" height="60" as="geometry" />
        </mxCell>
        <mxCell id="nMiAAU5giXeKPv7Q_GYp-4" value="Async symbol" style="whiteSpace=wrap;html=1;align=center;" parent="1" vertex="1">
          <mxGeometry x="80" y="190" width="160" height="60" as="geometry" />
        </mxCell>
        <mxCell id="nMiAAU5giXeKPv7Q_GYp-5" value="Async symbol (filter)" style="whiteSpace=wrap;html=1;align=center;" parent="1" vertex="1">
          <mxGeometry x="320" y="190" width="160" height="60" as="geometry" />
        </mxCell>
        <mxCell id="nMiAAU5giXeKPv7Q_GYp-20" value="" style="endArrow=classic;html=1;rounded=0;entryX=0;entryY=0.5;entryDx=0;entryDy=0;" parent="1" target="nMiAAU5giXeKPv7Q_GYp-1" edge="1">
          <mxGeometry relative="1" as="geometry">
            <mxPoint y="80" as="sourcePoint" />
            <mxPoint x="440" y="230" as="targetPoint" />
          </mxGeometry>
        </mxCell>
        <mxCell id="nMiAAU5giXeKPv7Q_GYp-22" value="global&lt;br&gt;stdin" style="edgeLabel;resizable=0;html=1;;align=left;verticalAlign=bottom;" parent="nMiAAU5giXeKPv7Q_GYp-20" connectable="0" vertex="1">
          <mxGeometry x="-1" relative="1" as="geometry" />
        </mxCell>
        <mxCell id="nMiAAU5giXeKPv7Q_GYp-23" value="" style="endArrow=classic;html=1;rounded=0;entryX=0;entryY=0.5;entryDx=0;entryDy=0;" parent="1" edge="1">
          <mxGeometry relative="1" as="geometry">
            <mxPoint y="220" as="sourcePoint" />
            <mxPoint x="80" y="219.67000000000002" as="targetPoint" />
          </mxGeometry>
        </mxCell>
        <mxCell id="nMiAAU5giXeKPv7Q_GYp-24" value="global&lt;br&gt;stdin" style="edgeLabel;resizable=0;html=1;;align=left;verticalAlign=bottom;" parent="nMiAAU5giXeKPv7Q_GYp-23" connectable="0" vertex="1">
          <mxGeometry x="-1" relative="1" as="geometry" />
        </mxCell>
        <mxCell id="nMiAAU5giXeKPv7Q_GYp-25" value="" style="endArrow=classic;html=1;rounded=0;exitX=1;exitY=0.5;exitDx=0;exitDy=0;entryX=0;entryY=0.5;entryDx=0;entryDy=0;" parent="1" edge="1">
          <mxGeometry relative="1" as="geometry">
            <mxPoint x="240" y="70" as="sourcePoint" />
            <mxPoint x="320" y="70" as="targetPoint" />
          </mxGeometry>
        </mxCell>
        <mxCell id="nMiAAU5giXeKPv7Q_GYp-27" value="stdout" style="edgeLabel;resizable=0;html=1;;align=left;verticalAlign=bottom;" parent="nMiAAU5giXeKPv7Q_GYp-25" connectable="0" vertex="1">
          <mxGeometry x="-1" relative="1" as="geometry" />
        </mxCell>
        <mxCell id="nMiAAU5giXeKPv7Q_GYp-28" value="stdin" style="edgeLabel;resizable=0;html=1;;align=right;verticalAlign=bottom;" parent="nMiAAU5giXeKPv7Q_GYp-25" connectable="0" vertex="1">
          <mxGeometry x="1" relative="1" as="geometry" />
        </mxCell>
        <mxCell id="nMiAAU5giXeKPv7Q_GYp-31" value="" style="endArrow=classic;html=1;rounded=0;exitX=1;exitY=0.5;exitDx=0;exitDy=0;entryX=0;entryY=0.5;entryDx=0;entryDy=0;" parent="1" edge="1">
          <mxGeometry relative="1" as="geometry">
            <mxPoint x="480" y="70" as="sourcePoint" />
            <mxPoint x="560" y="70" as="targetPoint" />
          </mxGeometry>
        </mxCell>
        <mxCell id="nMiAAU5giXeKPv7Q_GYp-32" value="stdout" style="edgeLabel;resizable=0;html=1;;align=left;verticalAlign=bottom;" parent="nMiAAU5giXeKPv7Q_GYp-31" connectable="0" vertex="1">
          <mxGeometry x="-1" relative="1" as="geometry" />
        </mxCell>
        <mxCell id="nMiAAU5giXeKPv7Q_GYp-33" value="stdin" style="edgeLabel;resizable=0;html=1;;align=right;verticalAlign=bottom;" parent="nMiAAU5giXeKPv7Q_GYp-31" connectable="0" vertex="1">
          <mxGeometry x="1" relative="1" as="geometry" />
        </mxCell>
        <mxCell id="nMiAAU5giXeKPv7Q_GYp-34" value="" style="endArrow=classic;html=1;rounded=0;exitX=1;exitY=0.5;exitDx=0;exitDy=0;entryX=0;entryY=0.5;entryDx=0;entryDy=0;" parent="1" edge="1">
          <mxGeometry relative="1" as="geometry">
            <mxPoint x="240" y="210.00000000000003" as="sourcePoint" />
            <mxPoint x="320" y="210.00000000000003" as="targetPoint" />
          </mxGeometry>
        </mxCell>
        <mxCell id="nMiAAU5giXeKPv7Q_GYp-35" value="stdout" style="edgeLabel;resizable=0;html=1;;align=left;verticalAlign=bottom;" parent="nMiAAU5giXeKPv7Q_GYp-34" connectable="0" vertex="1">
          <mxGeometry x="-1" relative="1" as="geometry" />
        </mxCell>
        <mxCell id="nMiAAU5giXeKPv7Q_GYp-36" value="stdin" style="edgeLabel;resizable=0;html=1;;align=right;verticalAlign=bottom;" parent="nMiAAU5giXeKPv7Q_GYp-34" connectable="0" vertex="1">
          <mxGeometry x="1" relative="1" as="geometry" />
        </mxCell>
        <mxCell id="nMiAAU5giXeKPv7Q_GYp-38" value="" style="endArrow=classic;html=1;rounded=0;" parent="1" edge="1">
          <mxGeometry relative="1" as="geometry">
            <mxPoint x="720" y="70" as="sourcePoint" />
            <mxPoint x="800" y="70" as="targetPoint" />
          </mxGeometry>
        </mxCell>
        <mxCell id="nMiAAU5giXeKPv7Q_GYp-39" value="global&lt;br&gt;stdout" style="edgeLabel;resizable=0;html=1;;align=left;verticalAlign=bottom;" parent="nMiAAU5giXeKPv7Q_GYp-38" connectable="0" vertex="1">
          <mxGeometry x="-1" relative="1" as="geometry" />
        </mxCell>
        <mxCell id="nMiAAU5giXeKPv7Q_GYp-40" value="" style="endArrow=classic;html=1;rounded=0;" parent="1" edge="1">
          <mxGeometry relative="1" as="geometry">
            <mxPoint x="480" y="210" as="sourcePoint" />
            <mxPoint x="800" y="210" as="targetPoint" />
          </mxGeometry>
        </mxCell>
        <mxCell id="nMiAAU5giXeKPv7Q_GYp-41" value="global&lt;br&gt;stdout" style="edgeLabel;resizable=0;html=1;;align=left;verticalAlign=bottom;" parent="nMiAAU5giXeKPv7Q_GYp-40" connectable="0" vertex="1">
          <mxGeometry x="-1" relative="1" as="geometry">
            <mxPoint as="offset" />
          </mxGeometry>
        </mxCell>
        <mxCell id="nMiAAU5giXeKPv7Q_GYp-44" value="" style="endArrow=classic;html=1;rounded=0;" parent="1" edge="1">
          <mxGeometry relative="1" as="geometry">
            <mxPoint x="240" y="90" as="sourcePoint" />
            <mxPoint x="800" y="140" as="targetPoint" />
            <Array as="points">
              <mxPoint x="280" y="90" />
              <mxPoint x="280" y="140" />
            </Array>
          </mxGeometry>
        </mxCell>
        <mxCell id="nMiAAU5giXeKPv7Q_GYp-46" value="stderr" style="edgeLabel;resizable=0;html=1;;align=left;verticalAlign=bottom;" parent="nMiAAU5giXeKPv7Q_GYp-44" connectable="0" vertex="1">
          <mxGeometry x="-1" relative="1" as="geometry">
            <mxPoint as="offset" />
          </mxGeometry>
        </mxCell>
        <mxCell id="nMiAAU5giXeKPv7Q_GYp-48" value="" style="endArrow=classic;html=1;rounded=0;" parent="1" edge="1">
          <mxGeometry relative="1" as="geometry">
            <mxPoint x="480" y="90" as="sourcePoint" />
            <mxPoint x="520" y="140" as="targetPoint" />
            <Array as="points">
              <mxPoint x="520" y="90" />
              <mxPoint x="520" y="140" />
            </Array>
          </mxGeometry>
        </mxCell>
        <mxCell id="nMiAAU5giXeKPv7Q_GYp-49" value="stderr" style="edgeLabel;resizable=0;html=1;;align=left;verticalAlign=bottom;" parent="nMiAAU5giXeKPv7Q_GYp-48" connectable="0" vertex="1">
          <mxGeometry x="-1" relative="1" as="geometry">
            <mxPoint as="offset" />
          </mxGeometry>
        </mxCell>
        <mxCell id="nMiAAU5giXeKPv7Q_GYp-50" value="" style="endArrow=classic;html=1;rounded=0;" parent="1" edge="1">
          <mxGeometry relative="1" as="geometry">
            <mxPoint x="720" y="90" as="sourcePoint" />
            <mxPoint x="760" y="140" as="targetPoint" />
            <Array as="points">
              <mxPoint x="760" y="90" />
              <mxPoint x="760" y="140" />
            </Array>
          </mxGeometry>
        </mxCell>
        <mxCell id="nMiAAU5giXeKPv7Q_GYp-51" value="stderr" style="edgeLabel;resizable=0;html=1;;align=left;verticalAlign=bottom;" parent="nMiAAU5giXeKPv7Q_GYp-50" connectable="0" vertex="1">
          <mxGeometry x="-1" relative="1" as="geometry">
            <mxPoint as="offset" />
          </mxGeometry>
        </mxCell>
        <mxCell id="nMiAAU5giXeKPv7Q_GYp-52" value="global&lt;br&gt;stderr" style="edgeLabel;resizable=0;html=1;;align=left;verticalAlign=bottom;" parent="1" connectable="0" vertex="1">
          <mxGeometry x="760" y="130" as="geometry" />
        </mxCell>
        <mxCell id="nMiAAU5giXeKPv7Q_GYp-53" value="" style="endArrow=classic;html=1;rounded=0;" parent="1" edge="1">
          <mxGeometry relative="1" as="geometry">
            <mxPoint x="240" y="230" as="sourcePoint" />
            <mxPoint x="800" y="280" as="targetPoint" />
            <Array as="points">
              <mxPoint x="280" y="230" />
              <mxPoint x="280" y="280" />
            </Array>
          </mxGeometry>
        </mxCell>
        <mxCell id="nMiAAU5giXeKPv7Q_GYp-54" value="stderr" style="edgeLabel;resizable=0;html=1;;align=left;verticalAlign=bottom;" parent="nMiAAU5giXeKPv7Q_GYp-53" connectable="0" vertex="1">
          <mxGeometry x="-1" relative="1" as="geometry">
            <mxPoint as="offset" />
          </mxGeometry>
        </mxCell>
        <mxCell id="nMiAAU5giXeKPv7Q_GYp-55" value="" style="endArrow=classic;html=1;rounded=0;" parent="1" edge="1">
          <mxGeometry relative="1" as="geometry">
            <mxPoint x="480" y="230" as="sourcePoint" />
            <mxPoint x="520" y="280" as="targetPoint" />
            <Array as="points">
              <mxPoint x="520" y="230" />
              <mxPoint x="520" y="280" />
            </Array>
          </mxGeometry>
        </mxCell>
        <mxCell id="nMiAAU5giXeKPv7Q_GYp-56" value="stderr" style="edgeLabel;resizable=0;html=1;;align=left;verticalAlign=bottom;" parent="nMiAAU5giXeKPv7Q_GYp-55" connectable="0" vertex="1">
          <mxGeometry x="-1" relative="1" as="geometry">
            <mxPoint as="offset" />
          </mxGeometry>
        </mxCell>
        <mxCell id="nMiAAU5giXeKPv7Q_GYp-57" value="global&lt;br&gt;stderr" style="edgeLabel;resizable=0;html=1;;align=left;verticalAlign=bottom;" parent="1" connectable="0" vertex="1">
          <mxGeometry x="760" y="270" as="geometry" />
        </mxCell>
        <mxCell id="nMiAAU5giXeKPv7Q_GYp-58" value="Variant 1" style="text;html=1;align=center;verticalAlign=middle;whiteSpace=wrap;rounded=0;" parent="1" vertex="1">
          <mxGeometry width="60" height="30" as="geometry" />
        </mxCell>
        <mxCell id="nMiAAU5giXeKPv7Q_GYp-59" value="Variant 2" style="text;html=1;align=center;verticalAlign=middle;whiteSpace=wrap;rounded=0;" parent="1" vertex="1">
          <mxGeometry y="140" width="60" height="30" as="geometry" />
        </mxCell>
      </root>
    </mxGraphModel>
  </diagram>
</mxfile>
